PathFileType	4	(X/Y/Z)	C:\Users\Basilio\Documents\Thesis Gigler\squatting_fais\c3dfiles\047\SLS_pre_back5\markers_experimental.trc
DataRate	CameraRate	NumFrames	NumMarkers	Units	OrigDataRate	OrigDataStartFrame	OrigNumFrames
200.000000	200.000000	4	62	mm	200.000000	326	1304
Frame#	Time	FHD			LBHD			RBHD			C7			T10			CLAV			LSHO			LUUPA			LMUPA			LDUPA			LLEP			LMEP			LRAD			LUL			LRFIN			RSHO			RUPA1			RMUPA			RDUPA			RLEP			RMEP			RRAD			RUFIN			LASI			RASI			USACR			LSACR			RSACR			LTHI1			LTHI2			LTHI3			LTHI4			LLFC			LMFC			LTIB1			LTIB2			LTIB3			LTIB4			LLMAL			LMMAL			LMT1			LMT2			LMT5			RTHI			RTHI2			RTHI3			RTHI4			RLFC			RMFC			RTIB1			RTIB2			RTIB3			RTIB4			RLMAL			RMMAL			RHEE			RMT1			RMT2			RMT5			RUL			*60			*61			
		X1	Y1	Z1	X2	Y2	Z2	X3	Y3	Z3	X4	Y4	Z4	X5	Y5	Z5	X6	Y6	Z6	X7	Y7	Z7	X8	Y8	Z8	X9	Y9	Z9	X10	Y10	Z10	X11	Y11	Z11	X12	Y12	Z12	X13	Y13	Z13	X14	Y14	Z14	X15	Y15	Z15	X16	Y16	Z16	X17	Y17	Z17	X18	Y18	Z18	X19	Y19	Z19	X20	Y20	Z20	X21	Y21	Z21	X22	Y22	Z22	X23	Y23	Z23	X24	Y24	Z24	X25	Y25	Z25	X26	Y26	Z26	X27	Y27	Z27	X28	Y28	Z28	X29	Y29	Z29	X30	Y30	Z30	X31	Y31	Z31	X32	Y32	Z32	X33	Y33	Z33	X34	Y34	Z34	X35	Y35	Z35	X36	Y36	Z36	X37	Y37	Z37	X38	Y38	Z38	X39	Y39	Z39	X40	Y40	Z40	X41	Y41	Z41	X42	Y42	Z42	X43	Y43	Z43	X44	Y44	Z44	X45	Y45	Z45	X46	Y46	Z46	X47	Y47	Z47	X48	Y48	Z48	X49	Y49	Z49	X50	Y50	Z50	X51	Y51	Z51	X52	Y52	Z52	X53	Y53	Z53	X54	Y54	Z54	X55	Y55	Z55	X56	Y56	Z56	X57	Y57	Z57	X58	Y58	Z58	X59	Y59	Z59	X60	Y60	Z60	X61	Y61	Z61	X62	Y62	Z62	

327	1.63	-178.5350494384766	1744.4833984375	-1102.387084960938	-353.1136474609376	1693.737548828125	-1124.803344726563	-328.5826416015626	1702.491333007813	-978.164001464844	-362.6914062500001	1521.311401367188	-1048.609252929688	-382.9765319824219	1213.39453125	-1020.137084960938	-211.4694519042969	1467.461303710938	-1081.847900390625	-297.2501220703126	1480.227294921875	-1230.777587890625	-234.9840240478516	1335.176879882813	-1335.39501953125	-193.5152282714844	1362.105712890625	-1335.434204101563	-172.3114471435547	1308.27197265625	-1352.79638671875	-99.83498382568362	1297.593994140625	-1361.99609375	-111.100212097168	1244.284301757813	-1294.885498046875	41.4818229675293	1427.925537109375	-1190.183837890625	86.80232238769533	1367.533447265625	-1187.573486328125	131.0535125732422	1447.335815429688	-1191.67138671875	-237.7003936767579	1503.372924804688	-918.8111572265627	-129.5940399169922	1366.614013671875	-826.920104980469	-92.72801208496095	1389.309692382813	-849.1086425781252	-66.63736724853517	1337.031005859375	-834.2844848632815	5.616782188415528	1326.593017578125	-857.9771118164065	-24.94843673706055	1258.723510742188	-909.0361938476565	142.7768096923828	1376.461669921875	-1077.66943359375	114.2126007080078	1460.7490234375	-1102.5224609375	-223.8413238525391	980.7187500000002	-1115.912841796875	-210.5037689208985	1003.133666992188	-887.626892089844	-395.173065185547	1080.16259765625	-1001.874633789063	-404.359832763672	1046.888305664063	-1027.412353515625	-399.427459716797	1051.363891601563	-969.2645263671877	-304.8272705078126	827.712097167969	-1177.0244140625	-269.9154968261719	750.8813476562501	-1171.7861328125	-221.5964813232422	755.6157226562501	-1159.214965820313	-298.6546020507813	697.3829345703126	-1164.591186523438	-322.6359252929688	526.3175659179689	-1121.643798828125	-296.5654602050782	522.1395874023439	-998.8413085937502	-294.5379638671876	343.8983459472657	-1021.283020019531	-302.1027221679688	295.4229125976563	-1094.81201171875	-286.8579101562501	294.4581298828126	-1049.412475585938	-301.6906127929688	219.1466979980469	-1016.374328613281	-352.9373474121094	123.9532775878907	-1057.924438476563	-330.8865051269532	137.8409423828125	-972.0842285156252	-209.9613342285157	63.6901206970215	-991.3261718750002	-209.0604248046876	61.08905029296876	-1036.589721679688	-258.1307067871094	50.19613647460939	-1081.1064453125	-268.0716247558594	825.7252197265627	-778.733825683594	-219.6559753417969	779.268493652344	-773.4736938476565	-190.4363098144532	783.5329589843752	-786.2519531250002	-231.8632965087891	696.6755371093751	-763.1048583984376	-210.2898712158204	564.9245605468751	-771.5161743164065	-207.2096252441407	530.0967407226564	-897.5088500976565	-291.7374877929688	470.864471435547	-767.2068481445314	-390.0461730957032	506.062225341797	-731.8097534179689	-372.7181396484376	462.868377685547	-736.7564086914064	-414.8600158691407	428.4847412109376	-762.9726562500001	-578.4441528320314	437.6441955566407	-726.4464721679689	-555.3769531250001	397.9459533691407	-806.8056640625002	-610.6718139648439	478.080047607422	-789.9511718750002	-612.5570678710939	271.2992858886719	-776.7163085937502	-613.3747558593751	271.0631103515626	-730.2276000976564	-650.6174926757814	324.0035400390626	-687.3778686523439	nan	nan	nan	nan	nan	nan	nan	nan	nan	
328	1.635	-177.9947814941407	1744.380249023438	-1102.451171875	-352.8532409667969	1694.003173828125	-1124.697265625	-328.0370483398438	1702.494262695313	-978.1751708984377	-362.1741333007813	1521.312866210938	-1048.577880859375	-382.8841247558594	1213.580322265625	-1019.970886230469	-210.7426300048829	1467.503051757813	-1081.982788085938	-296.7004089355469	1480.239135742188	-1230.832885742188	-234.5238800048829	1335.1220703125	-1335.3291015625	-193.1397552490235	1361.970458984375	-1335.330078125	-171.7689361572266	1308.196411132813	-1352.784790039063	-99.4311447143555	1297.516845703125	-1361.9140625	-110.5510406494141	1244.134887695313	-1294.846313476563	41.96095275878907	1427.83837890625	-1190.1533203125	87.21257781982423	1367.453125	-1187.533203125	131.4902648925782	1447.153442382813	-1191.637573242188	-237.0459289550782	1503.363891601563	-918.793395996094	-129.154769897461	1366.483032226563	-826.7918090820315	-92.49444580078126	1389.174194335938	-848.9802856445315	-66.16677856445314	1337.061157226563	-834.206726074219	6.095660686492922	1326.392944335938	-857.9777832031252	-24.53738594055176	1258.721069335938	-909.037780761719	143.5892028808594	1376.559692382813	-1078.037231445313	114.5178909301758	1460.452758789063	-1102.142211914063	-226.9693450927735	979.7854614257815	-1113.617065429688	-210.8173828125001	1003.049682617188	-887.6968994140627	-395.4106750488282	1080.203857421875	-1001.764526367188	-404.4727783203126	1047.036376953125	-1027.251831054688	-399.7012939453126	1051.4296875	-969.0930786132815	-304.5957946777344	827.6014404296877	-1177.1396484375	-269.4150085449219	750.8355102539064	-1171.86181640625	-221.5692901611329	755.5764160156251	-1158.862548828125	-297.7462463378907	697.1598510742189	-1164.83251953125	-320.9467773437501	526.2238769531251	-1121.809326171875	-289.0792541503907	525.1119384765626	-1001.077514648438	-293.3439941406251	343.9488220214844	-1021.33837890625	-301.5307312011719	295.2655029296876	-1094.747192382813	-286.2599487304688	294.2405395507813	-1049.159790039063	-301.3213806152344	218.7533874511719	-1015.922241210938	-352.7524108886719	123.9791564941407	-1057.961059570313	-330.8038330078126	137.856918334961	-972.0219726562502	-209.9576416015626	63.71712112426759	-991.2517700195315	-209.0663604736329	61.06213760375978	-1036.557250976563	-258.4666748046876	50.16472625732423	-1080.860717773438	-268.3357849121094	825.7226562500002	-778.7751464843752	-220.0852813720704	779.2065429687502	-773.3982543945315	-190.8968505859375	783.440612792969	-786.0654907226565	-232.1318054199219	696.6826171875001	-763.2783203125001	-210.7096252441407	564.8369140625001	-771.5001220703127	-207.4062042236329	530.1035156250001	-897.6525878906252	-291.8404235839844	470.8011779785157	-767.3359375000001	-390.2584533691407	506.043426513672	-732.0138549804689	-372.8912048339844	462.8709106445314	-736.8705444335939	-415.0098876953126	428.4912414550782	-763.3046875000001	-578.6292114257814	437.582977294922	-726.6962890625001	-555.4439086914064	397.9169006347657	-807.0449218750002	-610.8600463867189	477.9798278808595	-790.1746215820315	-612.7156372070314	271.0954895019532	-776.9948730468752	-613.4720458984376	270.9149475097657	-730.4138793945314	-650.8994750976564	323.8912353515626	-687.5841674804689	nan	nan	nan	nan	nan	nan	nan	nan	nan	
329	1.64	-177.265625	1744.512573242188	-1102.523193359375	-351.9869384765626	1693.73193359375	-1124.768920898438	-327.4205017089844	1702.523193359375	-978.1877441406252	-361.6521606445313	1521.525512695313	-1048.5107421875	-382.8312988281251	1213.665405273438	-1019.813537597656	-210.0873107910157	1467.408203125	-1081.9736328125	-296.7277526855469	1480.22265625	-1230.474975585938	-234.222885131836	1335.09716796875	-1335.236083984375	-192.6896514892579	1361.880493164063	-1335.241455078125	-171.3831329345703	1308.119506835938	-1352.606201171875	-99.08860015869143	1297.359985351563	-1361.817016601563	-109.7102661132813	1244.11181640625	-1294.25634765625	42.26313400268555	1427.651123046875	-1189.924682617188	87.59281158447267	1367.185546875	-1187.48095703125	131.8799591064453	1447.005126953125	-1191.582275390625	-236.4446105957032	1503.115112304688	-919.2427978515627	-128.6123962402344	1366.571899414063	-825.8393554687502	-91.96596527099611	1389.228759765625	-849.0159301757815	-65.54640960693361	1337.01123046875	-834.0422973632815	6.435492992401125	1326.249389648438	-857.7973632812502	-24.26399040222169	1258.571655273438	-908.9351806640627	143.9823303222657	1376.233764648438	-1077.932861328125	114.9947128295899	1460.117065429688	-1101.922241210938	-225.5317077636719	980.375671386719	-1115.146118164063	-211.1686401367188	1002.963806152344	-887.599792480469	-395.6105957031251	1080.34912109375	-1001.607116699219	-404.7575988769532	1047.333984375	-1027.07421875	-400.1179504394532	1051.667846679688	-968.9234619140627	-304.4765319824219	827.4467773437502	-1177.14990234375	-268.8431396484376	750.7737426757814	-1171.802978515625	-220.9129638671876	755.7218627929689	-1158.925415039063	-296.8320007324219	696.8258666992189	-1165.043212890625	-319.3931884765626	526.0318603515626	-1121.977783203125	-291.2999877929688	522.8513793945314	-1000.784362792969	-292.1483764648438	343.5808715820313	-1021.836608886719	-300.4235839843751	295.2880859375001	-1094.753173828125	-285.2612304687501	293.7692565917969	-1049.148803710938	-300.7448120117188	218.246566772461	-1016.417297363281	-352.7687072753907	124.027587890625	-1057.956787109375	-330.7009582519532	137.8369293212891	-971.9619750976565	-209.9669189453126	63.69013595581056	-991.1931152343752	-209.1245574951172	61.02925109863283	-1036.501831054688	-259.1574096679688	49.92646408081056	-1080.154052734375	-268.8068542480469	825.6524047851565	-778.6049804687502	-220.4165802001954	779.146667480469	-773.417175292969	-191.2212982177735	783.384948730469	-786.0251464843752	-232.4158782958985	696.5736694335939	-763.3098144531251	-210.8900146484376	564.7567138671876	-771.7749023437502	-207.7748718261719	530.1397705078126	-897.8643188476565	-291.9954528808594	470.7962341308595	-767.7469482421876	-390.5966186523439	506.049041748047	-732.1208496093751	-373.1336364746094	462.8387756347657	-737.0577392578126	-415.1389465332032	428.4927062988282	-763.4017333984376	-578.9766235351564	437.5839233398439	-726.9801635742189	-555.6971435546876	397.9335327148439	-807.309753417969	-611.0363769531251	477.9439086914064	-790.371276855469	-612.8989868164064	271.0077819824219	-777.111755371094	-613.4981689453126	270.7605285644532	-730.7056884765626	-651.0958862304689	323.7628479003907	-687.7836914062501	nan	nan	nan	nan	nan	nan	nan	nan	nan	
330	1.645	-176.79736328125	1743.968872070313	-1102.74169921875	-351.5837707519532	1693.734497070313	-1124.803100585938	-327.0370483398438	1702.545776367188	-978.1640625000002	-361.1138000488282	1521.579711914063	-1048.355346679688	-382.8722534179688	1213.92578125	-1019.609069824219	-209.6648712158204	1467.28125	-1081.886352539063	-295.7590332031251	1480.176025390625	-1230.583129882813	-233.8211975097657	1335.00244140625	-1335.171752929688	-192.3252563476563	1361.804077148438	-1335.140747070313	-171.071762084961	1307.987548828125	-1352.521728515625	-98.78615570068362	1297.320556640625	-1361.762451171875	-109.5429992675782	1244.072509765625	-1294.330200195313	42.64348220825196	1427.594116210938	-1189.950805664063	87.91737365722658	1366.923706054688	-1187.464477539063	132.2966003417969	1446.843139648438	-1191.554931640625	-235.6600799560547	1503.273803710938	-919.2725830078127	-127.9439010620117	1366.697387695313	-826.0247802734377	-91.43863677978517	1389.004638671875	-848.863220214844	-65.11501312255861	1336.596557617188	-834.679626464844	6.85165596008301	1326.053344726563	-857.8530883789065	-23.85865020751953	1258.527709960938	-908.8057250976565	144.1383514404297	1375.972778320313	-1077.596801757813	115.2825469970703	1459.845703125	-1101.973510742188	-226.1705932617188	980.266784667969	-1114.91845703125	-211.3422241210938	1002.787109375	-887.558776855469	-395.8249511718751	1080.562133789063	-1001.427124023438	-405.0529785156251	1047.569091796875	-1026.938354492188	-400.4091186523439	1051.843139648438	-968.756042480469	-304.2585754394532	827.2258911132815	-1177.217041015625	-268.3249511718751	750.8013916015626	-1171.75390625	-220.498031616211	755.8996582031251	-1158.771728515625	-296.1120300292969	696.7015380859376	-1165.203979492188	-317.6397399902344	525.9833984375001	-1122.138427734375	-289.7893371582032	523.0127563476564	-1000.786499023438	-290.9573669433594	343.5311889648438	-1021.777648925781	-299.7667846679688	295.3324584960938	-1094.7265625	-283.9038085937501	293.9297180175782	-1049.410278320313	-300.3353881835938	218.0950469970704	-1016.380920410156	-352.6311645507813	124.0389022827149	-1057.951538085938	-330.6189575195313	137.8712310791016	-971.9080200195315	-209.9599304199219	63.66110992431642	-991.2192993164065	-208.9885559082032	61.20847320556642	-1036.47216796875	-259.2099914550782	49.96848297119142	-1080.12646484375	-269.1268615722657	825.588562011719	-778.5671386718752	-220.6456909179688	779.092224121094	-773.394470214844	-191.4046936035157	783.3334960937502	-786.2171630859377	-232.7476043701172	696.5338745117189	-763.4236450195314	-211.1439514160157	564.7381591796876	-772.130065917969	-207.9645996093751	530.1481933593751	-898.0083618164065	-292.3705139160157	470.7970581054689	-767.9598388671876	-390.8015136718751	506.094696044922	-732.2736816406251	-373.3066711425782	462.8070373535157	-737.2998657226564	-415.3511657714845	428.4476623535157	-763.7322998046876	-579.2695312500001	437.5490112304689	-727.2531738281251	-555.9478149414064	397.9357910156251	-807.5896606445315	-611.2277832031251	477.851531982422	-790.5466308593752	-613.5239868164064	270.2673950195313	-776.9903564453127	-613.7765502929689	270.7819519042969	-730.7863159179689	-651.3157958984376	323.7910156250001	-688.0062255859376	nan	nan	nan	nan	nan	nan	nan	nan	nan	
